<svg xmlns="http://www.w3.org/2000/svg" width="1200" height="340" viewBox="0 0 1200 340" role="img" aria-label="Hi, I'm Ashna Parekh. Senior Business Analyst, Product Management, Strategy and Operations.">
  <defs>
    <linearGradient id="bg" x1="0" y1="0" x2="1" y2="1"><stop offset="0" stop-color="#FFF6EF"/><stop offset="1" stop-color="#FFE4D3"/></linearGradient>
    <radialGradient id="glow" cx="0.9" cy="0.2" r="0.55"><stop offset="0" stop-color="#FFB08F" stop-opacity=".75"/><stop offset="1" stop-color="#FFB08F" stop-opacity="0"/></radialGradient>
    <clipPath id="r"><rect width="1200" height="340" rx="28"/></clipPath>
  </defs>
  <g clip-path="url(#r)">
    <rect width="1200" height="340" fill="url(#bg)"/>
    <rect width="1200" height="340" fill="url(#glow)"/>
    <circle cx="1080" cy="60" r="150" fill="none" stroke="#E8845B" stroke-opacity=".35" stroke-width="2"/>
    <circle cx="960" cy="300" r="60" fill="none" stroke="#1E1B18" stroke-opacity=".1" stroke-width="2"/>
    <g fill="#1E1B18" fill-opacity=".14"><circle cx="40" cy="250" r="1.6"/><circle cx="40" cy="264" r="1.6"/><circle cx="40" cy="278" r="1.6"/><circle cx="40" cy="292" r="1.6"/><circle cx="40" cy="306" r="1.6"/><circle cx="40" cy="320" r="1.6"/><circle cx="54" cy="250" r="1.6"/><circle cx="54" cy="264" r="1.6"/><circle cx="54" cy="278" r="1.6"/><circle cx="54" cy="292" r="1.6"/><circle cx="54" cy="306" r="1.6"/><circle cx="54" cy="320" r="1.6"/><circle cx="68" cy="250" r="1.6"/><circle cx="68" cy="264" r="1.6"/><circle cx="68" cy="278" r="1.6"/><circle cx="68" cy="292" r="1.6"/><circle cx="68" cy="306" r="1.6"/><circle cx="68" cy="320" r="1.6"/><circle cx="82" cy="250" r="1.6"/><circle cx="82" cy="264" r="1.6"/><circle cx="82" cy="278" r="1.6"/><circle cx="82" cy="292" r="1.6"/><circle cx="82" cy="306" r="1.6"/><circle cx="82" cy="320" r="1.6"/><circle cx="96" cy="250" r="1.6"/><circle cx="96" cy="264" r="1.6"/><circle cx="96" cy="278" r="1.6"/><circle cx="96" cy="292" r="1.6"/><circle cx="96" cy="306" r="1.6"/><circle cx="96" cy="320" r="1.6"/><circle cx="110" cy="250" r="1.6"/><circle cx="110" cy="264" r="1.6"/><circle cx="110" cy="278" r="1.6"/><circle cx="110" cy="292" r="1.6"/><circle cx="110" cy="306" r="1.6"/><circle cx="110" cy="320" r="1.6"/><circle cx="124" cy="250" r="1.6"/><circle cx="124" cy="264" r="1.6"/><circle cx="124" cy="278" r="1.6"/><circle cx="124" cy="292" r="1.6"/><circle cx="124" cy="306" r="1.6"/><circle cx="124" cy="320" r="1.6"/><circle cx="138" cy="250" r="1.6"/><circle cx="138" cy="264" r="1.6"/><circle cx="138" cy="278" r="1.6"/><circle cx="138" cy="292" r="1.6"/><circle cx="138" cy="306" r="1.6"/><circle cx="138" cy="320" r="1.6"/><circle cx="152" cy="250" r="1.6"/><circle cx="152" cy="264" r="1.6"/><circle cx="152" cy="278" r="1.6"/><circle cx="152" cy="292" r="1.6"/><circle cx="152" cy="306" r="1.6"/><circle cx="152" cy="320" r="1.6"/><circle cx="166" cy="250" r="1.6"/><circle cx="166" cy="264" r="1.6"/><circle cx="166" cy="278" r="1.6"/><circle cx="166" cy="292" r="1.6"/><circle cx="166" cy="306" r="1.6"/><circle cx="166" cy="320" r="1.6"/><circle cx="180" cy="250" r="1.6"/><circle cx="180" cy="264" r="1.6"/><circle cx="180" cy="278" r="1.6"/><circle cx="180" cy="292" r="1.6"/><circle cx="180" cy="306" r="1.6"/><circle cx="180" cy="320" r="1.6"/><circle cx="194" cy="250" r="1.6"/><circle cx="194" cy="264" r="1.6"/><circle cx="194" cy="278" r="1.6"/><circle cx="194" cy="292" r="1.6"/><circle cx="194" cy="306" r="1.6"/><circle cx="194" cy="320" r="1.6"/></g>
    <path d="M1010 200c10-12 20-12 30 0s20 12 30 0 20-12 30 0 20 12 30 0" fill="none" stroke="#E8845B" stroke-width="3" stroke-linecap="round" stroke-opacity=".8"/>
    <text x="72" y="118" font-family="Manrope, Inter, -apple-system, 'Segoe UI', Helvetica, Arial, sans-serif" font-size="56" font-weight="500" fill="#1E1B18" letter-spacing="-1.5">Hi, I’m</text>
    <text x="72" y="184" font-family="Manrope, Inter, -apple-system, 'Segoe UI', Helvetica, Arial, sans-serif" font-size="56" font-weight="500" fill="#E8845B" letter-spacing="-1.5">Ashna Parekh.</text>
    <text x="72" y="228" font-family="Manrope, Inter, -apple-system, 'Segoe UI', Helvetica, Arial, sans-serif" font-size="18" font-weight="700" fill="#1E1B18">Senior Business Analyst  ·  Product Management  ·  Strategy &amp; Operations</text>
    <text x="72" y="258" font-family="Manrope, Inter, -apple-system, 'Segoe UI', Helvetica, Arial, sans-serif" font-size="15" fill="#5A544E">Based in San Francisco. Credit and risk platforms from zero to launch at RBC Capital Markets. AI products built end to end.</text>
    <g transform="translate(72,282)"><rect width="196" height="40" rx="20" fill="#E8845B"/><text x="98" y="25" text-anchor="middle" font-family="Manrope, Inter, -apple-system, 'Segoe UI', Helvetica, Arial, sans-serif" font-size="14" font-weight="700" fill="#fff">ashna16.github.io  →</text></g>
  </g>
</svg>